<svg width="11" height="19" viewBox="0 0 11 19" fill="none" xmlns="http://www.w3.org/2000/svg">
<path d="M10 0.5C10.2761 0.5 10.5 0.723858 10.5 1V4.27246C10.5 4.5486 10.2761 4.77246 10 4.77246H7.5459C7.46151 4.77246 7.37998 4.80654 7.32031 4.86621C7.2608 4.92584 7.22756 5.00657 7.22754 5.09082V7.0459H10C10.1539 7.0459 10.2998 7.11599 10.3945 7.2373C10.4893 7.35866 10.5227 7.51762 10.4854 7.66699L9.66699 10.9395C9.61135 11.162 9.41107 11.3184 9.18164 11.3184H7.22754V17.3633C7.22754 17.6393 7.00356 17.8631 6.72754 17.8633H3.4541C3.17816 17.863 2.9541 17.6393 2.9541 17.3633V11.3184H1C0.723917 11.3184 0.500096 11.0944 0.5 10.8184V7.5459C0.5 7.26976 0.723858 7.0459 1 7.0459H2.9541V5.09082C2.95413 3.87337 3.43803 2.70565 4.29883 1.84473C5.15979 0.983764 6.32831 0.5 7.5459 0.5H10Z" stroke="white" stroke-linecap="round" stroke-linejoin="round"/>
</svg>
