<svg width="17" height="15" viewBox="0 0 17 15" fill="none" xmlns="http://www.w3.org/2000/svg">
<path d="M13.2715 5.22363C14.3178 5.22363 15.0782 5.56743 15.6201 6.21973L15.623 6.22363C16.1895 6.89322 16.5 7.82853 16.5 9.08594V14.5039H13.5V9.59277C13.5 9.02367 13.3427 8.51394 12.9775 8.12305H12.9785C12.9749 8.11894 12.9704 8.11539 12.9668 8.11133C12.9655 8.10993 12.9642 8.10784 12.9629 8.10645H12.9619C12.6023 7.70569 12.1202 7.5176 11.5703 7.51758C11.076 7.51758 10.6337 7.66284 10.2871 7.97754L10.1514 8.11523C9.79206 8.50876 9.64062 9.02199 9.64062 9.59277V14.5039H6.62207V5.2959H9.64062V8.03906L10.5596 6.625C10.8279 6.21226 11.1838 5.87396 11.6357 5.61035L11.6367 5.61133C12.0794 5.35988 12.6181 5.22364 13.2715 5.22363ZM3.80762 5.2959V14.5039H0.790039V5.2959H3.80762ZM2.31641 0.5C2.90592 0.5 3.33229 0.662768 3.64453 0.948242L3.65039 0.953125C3.96229 1.22938 4.11518 1.5685 4.11523 2.00879C4.11523 2.43363 3.96492 2.76829 3.65039 3.04688C3.33851 3.32303 2.90992 3.48145 2.31641 3.48145C1.7084 3.48139 1.27512 3.32163 0.964844 3.04688C0.650316 2.76829 0.5 2.43363 0.5 2.00879C0.500053 1.5685 0.652942 1.22938 0.964844 0.953125L0.970703 0.948242C1.2813 0.664271 1.71237 0.500054 2.31641 0.5Z" stroke="white"/>
</svg>
